<svg width="165" height="57" viewBox="0 0 165 57" fill="none" xmlns="http://www.w3.org/2000/svg">
<g id="available-on-the-app-store-1 1" clip-path="url(#clip0_224_364)">
<path id="Vector" d="M6.72904 0.84008H158.268C161.964 0.84008 164.968 3.85288 164.968 7.56008V50.1201C164.968 53.8273 161.964 56.8401 158.268 56.8401H6.72904C3.03269 56.8401 0.028717 53.8273 0.028717 50.1201V7.56008C0.028717 3.85288 3.03269 0.84008 6.72904 0.84008Z" fill="white"/>
<path id="Vector_2" d="M36.1336 27.5633C36.1001 23.5537 39.4056 21.6049 39.5508 21.5153C37.6747 18.7825 34.7712 18.4017 33.755 18.3681C31.3205 18.1105 28.9531 19.8353 27.7135 19.8353C26.4516 19.8353 24.5309 18.4017 22.4761 18.4353C19.8295 18.4801 17.3392 20.0145 15.988 22.4113C13.185 27.2833 15.2733 34.4513 17.9646 38.3937C19.3158 40.3201 20.8792 42.4817 22.9451 42.4033C24.9552 42.3249 25.7146 41.1153 28.1379 41.1153C30.55 41.1153 31.2535 42.4033 33.353 42.3585C35.5194 42.3249 36.8706 40.4209 38.1772 38.4721C39.7294 36.2657 40.3548 34.0817 40.3771 33.9697C40.3213 33.9473 36.1783 32.3569 36.1336 27.5633V27.5633ZM32.1693 15.7809C33.2525 14.4257 33.9895 12.5777 33.7885 10.6961C32.2251 10.7633 30.2597 11.7825 29.1318 13.1153C28.1379 14.2913 27.2445 16.2065 27.4679 18.0097C29.2323 18.1441 31.0414 17.1137 32.1693 15.7809V15.7809ZM65.3023 42.1233H62.4882L60.9471 37.2625H55.5869L54.124 42.1233H51.388L56.6924 25.5809H59.9756L65.3023 42.1233ZM60.4893 35.2241L59.0934 30.9121C58.9482 30.4641 58.669 29.4337 58.267 27.7985H58.2112C58.0437 28.5041 57.7868 29.5457 57.4295 30.9121L56.0559 35.2241H60.4893ZM78.9375 36.0193C78.9375 38.0465 78.3903 39.6481 77.2847 40.8241C76.302 41.8769 75.0736 42.3921 73.6219 42.3921C72.0473 42.3921 70.9194 41.8321 70.2271 40.7009V46.9617H67.5804V34.1153C67.5804 32.8385 67.5469 31.5393 67.4799 30.1953H69.8027L69.9479 32.0881H69.9926C70.8748 30.6657 72.2148 29.9489 74.0016 29.9489C75.4087 29.9489 76.57 30.5089 77.5081 31.6177C78.4685 32.7377 78.9375 34.1937 78.9375 36.0193V36.0193ZM76.2462 36.1089C76.2462 34.9441 75.9893 33.9921 75.4645 33.2417C74.895 32.4577 74.1244 32.0657 73.164 32.0657C72.5163 32.0657 71.9245 32.2897 71.3885 32.7153C70.8636 33.1521 70.5062 33.7121 70.3499 34.4177C70.2717 34.7425 70.2271 35.0113 70.2271 35.2241V37.2177C70.2271 38.0801 70.4951 38.8193 71.0199 39.4129C71.5448 40.0065 72.2372 40.3089 73.0859 40.3089C74.0798 40.3089 74.8503 39.9169 75.4086 39.1553C75.967 38.3825 76.2462 37.3745 76.2462 36.1089ZM92.6061 36.0193C92.6061 38.0465 92.0589 39.6481 90.9534 40.8241C89.9707 41.8769 88.7423 42.3921 87.2906 42.3921C85.716 42.3921 84.5881 41.8321 83.8957 40.7009V46.9617H81.2491V34.1153C81.2491 32.8385 81.2156 31.5393 81.1486 30.1953H83.4714L83.6165 32.0881H83.6612C84.5434 30.6657 85.8835 29.9489 87.6702 29.9489C89.0773 29.9489 90.2387 30.5089 91.1767 31.6177C92.1371 32.7377 92.6061 34.1937 92.6061 36.0193V36.0193ZM89.9148 36.1089C89.9148 34.9441 89.658 33.9921 89.1331 33.2417C88.5636 32.4577 87.7931 32.0657 86.8327 32.0657C86.185 32.0657 85.5931 32.2897 85.0571 32.7153C84.5323 33.1521 84.1861 33.7121 84.0186 34.4177C83.9404 34.7425 83.8957 35.0113 83.8957 35.2241V37.2177C83.8957 38.0801 84.1637 38.8193 84.6886 39.4129C85.2134 40.0065 85.9058 40.3089 86.7545 40.3089C87.7484 40.3089 88.5301 39.9169 89.0773 39.1553C89.6468 38.3825 89.9148 37.3745 89.9148 36.1089ZM107.905 37.4865C107.905 38.8977 107.414 40.0401 106.442 40.9249C105.37 41.8881 103.874 42.3697 101.953 42.3697C100.177 42.3697 98.7593 42.0225 97.6872 41.3393L98.3014 39.1329C99.4628 39.8161 100.736 40.1633 102.121 40.1633C103.114 40.1633 103.896 39.9393 104.443 39.4913C105.002 39.0433 105.281 38.4385 105.281 37.6881C105.281 37.0161 105.046 36.4561 104.6 35.9969C104.142 35.5377 103.382 35.1121 102.322 34.7201C99.407 33.6337 97.9664 32.0545 97.9664 29.9825C97.9664 28.6273 98.4801 27.5185 99.4963 26.6449C100.513 25.7825 101.864 25.3457 103.55 25.3457C105.046 25.3457 106.297 25.6033 107.291 26.1297L106.621 28.2801C105.683 27.7761 104.633 27.5185 103.449 27.5185C102.523 27.5185 101.786 27.7537 101.261 28.2017C100.825 28.6161 100.602 29.1089 100.602 29.7025C100.602 30.3521 100.859 30.9009 101.361 31.3153C101.797 31.7073 102.601 32.1329 103.762 32.5921C105.18 33.1633 106.219 33.8353 106.889 34.6081C107.57 35.3809 107.905 36.3441 107.905 37.4865V37.4865ZM116.66 32.1889H113.746V37.9793C113.746 39.4465 114.259 40.1857 115.287 40.1857C115.756 40.1857 116.147 40.1409 116.459 40.0625L116.537 42.0785C116.013 42.2689 115.331 42.3697 114.483 42.3697C113.433 42.3697 112.629 42.0449 112.037 41.4065C111.445 40.7681 111.155 39.6929 111.155 38.1921V32.1777H109.424V30.1953H111.155V28.0113L113.746 27.2273V30.1953H116.66V32.1889ZM129.771 36.0641C129.771 37.9009 129.246 39.4017 128.207 40.5777C127.113 41.7873 125.661 42.3921 123.852 42.3921C122.11 42.3921 120.714 41.8097 119.675 40.6561C118.637 39.5025 118.123 38.0353 118.123 36.2657C118.123 34.4177 118.659 32.9057 119.72 31.7297C120.792 30.5537 122.233 29.9601 124.042 29.9601C125.784 29.9601 127.191 30.5425 128.252 31.7073C129.268 32.8273 129.771 34.2833 129.771 36.0641V36.0641ZM127.035 36.1201C127.035 35.0225 126.8 34.0929 126.331 33.3089C125.773 32.3569 124.98 31.8865 123.952 31.8865C122.892 31.8865 122.076 32.3569 121.529 33.3089C121.049 34.0929 120.826 35.0449 120.826 36.1761C120.826 37.2737 121.06 38.2145 121.529 38.9873C122.099 39.9393 122.903 40.4097 123.93 40.4097C124.935 40.4097 125.728 39.9281 126.309 38.9649C126.789 38.1585 127.035 37.2177 127.035 36.1201V36.1201ZM138.369 32.5249C138.112 32.4801 137.833 32.4577 137.532 32.4577C136.605 32.4577 135.879 32.8049 135.377 33.5105C134.941 34.1265 134.718 34.9217 134.718 35.8625V42.1233H132.071V33.9473C132.071 32.5697 132.049 31.3153 131.993 30.1953H134.293L134.394 32.4801H134.472C134.751 31.6961 135.187 31.0577 135.79 30.5873C136.382 30.1617 137.018 29.9489 137.699 29.9489C137.945 29.9489 138.168 29.9713 138.358 29.9937L138.369 32.5249ZM150.184 35.5937C150.184 36.0641 150.151 36.4673 150.084 36.7921H142.155C142.189 37.9681 142.568 38.8753 143.305 39.4913C143.975 40.0401 144.835 40.3201 145.896 40.3201C147.069 40.3201 148.141 40.1297 149.101 39.7601L149.514 41.5969C148.386 42.0897 147.057 42.3361 145.528 42.3361C143.685 42.3361 142.233 41.7873 141.183 40.7009C140.134 39.6145 139.609 38.1473 139.609 36.3217C139.609 34.5297 140.1 33.0289 141.083 31.8305C142.11 30.5537 143.495 29.9153 145.237 29.9153C146.946 29.9153 148.252 30.5537 149.123 31.8305C149.827 32.8609 150.184 34.1041 150.184 35.5937V35.5937ZM147.66 34.9105C147.683 34.1265 147.504 33.4433 147.147 32.8721C146.689 32.1329 145.985 31.7633 145.047 31.7633C144.187 31.7633 143.484 32.1217 142.948 32.8385C142.512 33.4097 142.244 34.1041 142.166 34.8993L147.66 34.9105Z" fill="black"/>
<path id="Vector_3" d="M59.2163 19.6673H57.8315L57.0722 17.2817H54.4367L53.7109 19.6673H52.3708L54.9727 11.5361H56.5808L59.2163 19.6673ZM56.8377 16.2737L56.1565 14.1457C56.0895 13.9329 55.9555 13.4177 55.7433 12.6113H55.7209C55.6316 12.9585 55.5199 13.4625 55.3301 14.1457L54.6601 16.2737H56.8377ZM65.7379 13.7985L63.5268 19.6673H62.2649L60.1208 13.7985H61.5167L62.5106 16.9009C62.6781 17.4161 62.8233 17.9089 62.9349 18.3793H62.9685C63.069 17.9537 63.2141 17.4609 63.3928 16.9009L64.3755 13.7985H65.7379ZM70.4505 19.6673L70.35 18.9953H70.3165C69.9144 19.5329 69.3449 19.8017 68.6079 19.8017C67.5582 19.8017 66.8211 19.0625 66.8211 18.0769C66.8211 16.6321 68.0719 15.8817 70.2383 15.8817V15.7697C70.2383 14.9969 69.8251 14.6161 69.0211 14.6161C68.4404 14.6161 67.9379 14.7617 67.4912 15.0529L67.2232 14.2017C67.7592 13.8657 68.4404 13.6977 69.2332 13.6977C70.7632 13.6977 71.5337 14.5041 71.5337 16.1281V18.2897C71.5337 18.8833 71.556 19.3425 71.623 19.6897L70.4505 19.6673ZM70.2718 16.7441C68.8312 16.7441 68.1054 17.0913 68.1054 17.9313C68.1054 18.5473 68.4739 18.8497 68.9987 18.8497C69.6576 18.8497 70.2718 18.3457 70.2718 17.6513V16.7441ZM74.426 12.8353C73.9905 12.8353 73.6555 12.4993 73.6555 12.0513C73.6555 11.6033 74.0016 11.2785 74.4483 11.2785C74.895 11.2785 75.2524 11.6033 75.2412 12.0513C75.2412 12.5217 74.9062 12.8353 74.426 12.8353V12.8353ZM73.8006 13.7985H75.096V19.6561H73.8006V13.7985ZM77.4076 11.1105H78.703V19.6561H77.4076V11.1105ZM84.2196 19.6673L84.1191 18.9953H84.0856C83.6836 19.5329 83.1141 19.8017 82.377 19.8017C81.3273 19.8017 80.5903 19.0625 80.5903 18.0769C80.5903 16.6321 81.841 15.8817 84.0074 15.8817V15.7697C84.0074 14.9969 83.5943 14.6161 82.7902 14.6161C82.2095 14.6161 81.707 14.7617 81.2603 15.0529L80.9923 14.1905C81.5283 13.8545 82.2095 13.6865 83.0024 13.6865C84.5323 13.6865 85.3028 14.4929 85.3028 16.1169V18.2785C85.3028 18.8721 85.3252 19.3313 85.381 19.6785H84.2196V19.6673ZM84.0409 16.7441C82.6004 16.7441 81.8745 17.0913 81.8745 17.9313C81.8745 18.5473 82.243 18.8497 82.7679 18.8497C83.4268 18.8497 84.0409 18.3457 84.0409 17.6513V16.7441ZM90.5738 19.8017C89.7474 19.8017 89.1332 19.4545 88.7312 18.7601H88.7088L88.6307 19.6673H87.5251C87.5586 19.1969 87.5698 18.6705 87.5698 18.0881V11.1105H88.8763V14.6609H88.8987C89.2895 14.0113 89.9037 13.6865 90.7636 13.6865C92.1707 13.6865 93.1534 14.8961 93.1534 16.6545C93.1534 18.4689 92.059 19.8017 90.5738 19.8017V19.8017ZM90.3057 14.7057C89.5575 14.7057 88.8763 15.3553 88.8763 16.2625V17.2929C88.8763 18.0993 89.4905 18.7601 90.2834 18.7601C91.255 18.7601 91.8356 17.9649 91.8356 16.6993C91.8356 15.5121 91.2326 14.7057 90.3057 14.7057V14.7057ZM95.0741 11.1105H96.3695V19.6561H95.0741V11.1105ZM103.438 17.0465H99.541C99.5633 18.1553 100.3 18.7825 101.384 18.7825C101.964 18.7825 102.489 18.6817 102.958 18.5025L103.159 19.4097C102.612 19.6561 101.964 19.7681 101.205 19.7681C99.3735 19.7681 98.2903 18.6145 98.2903 16.8113C98.2903 15.0193 99.3958 13.6641 101.06 13.6641C102.545 13.6641 103.494 14.7729 103.494 16.4529C103.494 16.6881 103.483 16.8897 103.438 17.0465V17.0465ZM102.255 16.1169C102.255 15.2097 101.797 14.5713 100.97 14.5713C100.222 14.5713 99.6415 15.2209 99.5522 16.1169H102.255ZM111.311 19.8017C109.603 19.8017 108.497 18.5249 108.497 16.7889C108.497 14.9745 109.625 13.6865 111.412 13.6865C113.098 13.6865 114.226 14.9073 114.226 16.6881C114.226 18.5137 113.064 19.8017 111.311 19.8017ZM111.367 14.6385C110.429 14.6385 109.826 15.5233 109.826 16.7441C109.826 17.9537 110.44 18.8273 111.356 18.8273C112.272 18.8273 112.886 17.8865 112.886 16.7105C112.875 15.5233 112.283 14.6385 111.367 14.6385V14.6385ZM121.205 19.6673H119.91V16.2961C119.91 15.2545 119.508 14.7393 118.726 14.7393C117.956 14.7393 117.431 15.4001 117.431 16.1729V19.6561H116.135V15.4785C116.135 14.9633 116.124 14.4033 116.091 13.7985H117.23L117.286 14.7057H117.319C117.665 14.0785 118.38 13.6753 119.173 13.6753C120.401 13.6753 121.205 14.6161 121.205 16.1505V19.6673ZM129.704 14.7841H128.274V17.6289C128.274 18.3569 128.531 18.7153 129.034 18.7153C129.257 18.7153 129.458 18.6929 129.614 18.6593L129.648 19.6449C129.391 19.7457 129.056 19.7905 128.643 19.7905C127.615 19.7905 127.012 19.2193 127.012 17.7409V14.7841H126.164V13.8097H127.012V12.7345L128.285 12.3425V13.7985H129.715V14.7841H129.704ZM136.583 19.6673H135.287V16.3185C135.287 15.2657 134.885 14.7393 134.103 14.7393C133.433 14.7393 132.808 15.1985 132.808 16.1281V19.6561H131.513V11.1105H132.808V14.6273H132.83C133.244 13.9889 133.824 13.6753 134.584 13.6753C135.823 13.6753 136.583 14.6385 136.583 16.1729V19.6673ZM143.216 17.0465H139.319C139.341 18.1553 140.078 18.7825 141.161 18.7825C141.742 18.7825 142.267 18.6817 142.736 18.5025L142.937 19.4097C142.39 19.6561 141.742 19.7681 140.982 19.7681C139.151 19.7681 138.068 18.6145 138.068 16.8113C138.068 15.0193 139.173 13.6641 140.837 13.6641C142.323 13.6641 143.272 14.7729 143.272 16.4529C143.272 16.6881 143.261 16.8897 143.216 17.0465V17.0465ZM142.032 16.1169C142.032 15.2097 141.574 14.5713 140.748 14.5713C140 14.5713 139.408 15.2209 139.33 16.1169H142.032Z" fill="black"/>
</g>
<defs>
<clipPath id="clip0_224_364">
<rect width="165" height="56" fill="white" transform="translate(-0.00012207 0.840088)"/>
</clipPath>
</defs>
</svg>
