<svg width="172" height="57" viewBox="0 0 172 57" fill="none" xmlns="http://www.w3.org/2000/svg">
<g id="google-play-download-android-app 1" clip-path="url(#clip0_224_368)">
<path id="Vector" d="M172 49.2717C172 53.4509 168.596 56.8401 164.398 56.8401H7.60315C3.4047 56.8404 -0.00012207 53.4512 -0.00012207 49.2717V8.40779C-0.00012207 4.22899 3.4047 0.840088 7.60315 0.840088H164.398C168.596 0.840088 172 4.22899 172 8.40779V49.2717H172Z" fill="#F2F3F7"/>
<path id="Vector_2" d="M12.9012 11.6213V49.5445L32.1142 30.5831L12.9012 11.6213Z" fill="url(#paint0_linear_224_368)"/>
<path id="Vector_3" d="M37.2744 25.4899L29.5188 21.0332L12.9012 11.4834V11.6213L32.1142 30.5831L37.2744 25.4899Z" fill="url(#paint1_linear_224_368)"/>
<path id="Vector_4" d="M12.9012 49.5445V49.6824L29.5188 40.1323L37.2741 35.6756L32.1142 30.5831L12.9012 49.5445Z" fill="url(#paint2_linear_224_368)"/>
<path id="Vector_5" d="M37.2744 25.4898L32.1142 30.583L37.2741 35.6756L46.1373 30.5827L37.2744 25.4898Z" fill="url(#paint3_linear_224_368)"/>
<path id="Vector_6" d="M133.858 37.9961C133.137 37.9961 132.478 37.8636 131.882 37.5988C131.286 37.3337 130.785 36.9261 130.38 36.3765H130.259C130.34 37.0205 130.38 37.631 130.38 38.2077V42.7459H128.703V26.7661H130.068L130.3 28.2756H130.38C130.812 27.6715 131.314 27.236 131.887 26.9676C132.46 26.6991 133.117 26.5649 133.858 26.5649C135.328 26.5649 136.462 27.065 137.26 28.0644C138.059 29.0638 138.458 30.4662 138.458 32.2703C138.458 34.0817 138.052 35.4885 137.241 36.4923C136.429 37.495 135.301 37.9961 133.858 37.9961V37.9961ZM133.616 27.9837C132.483 27.9837 131.665 28.296 131.159 28.9196C130.654 29.5435 130.394 30.5366 130.38 31.8985V32.2703C130.38 33.8203 130.64 34.9289 131.159 35.5966C131.678 36.2644 132.511 36.5974 133.656 36.5974C134.614 36.5974 135.364 36.2122 135.906 35.4407C136.448 34.6695 136.72 33.6062 136.72 32.2503C136.72 30.8756 136.448 29.8199 135.906 29.0856C135.364 28.3506 134.6 27.9837 133.616 27.9837V27.9837ZM142.344 37.7946H140.666V22.1371H142.344V37.7946ZM151.993 37.7946L151.659 36.2249H151.579C151.026 36.9164 150.475 37.3846 149.925 37.6286C149.376 37.874 148.69 37.9962 147.868 37.9962C146.77 37.9962 145.909 37.7143 145.285 37.151C144.661 36.5877 144.35 35.7864 144.35 34.7461C144.35 32.5193 146.14 31.3519 149.718 31.2441L151.599 31.1835V30.4994C151.599 29.6338 151.412 28.9945 151.038 28.5825C150.664 28.1695 150.065 27.9633 149.244 27.9633C148.32 27.9633 147.275 28.2451 146.109 28.8085L145.594 27.5305C146.14 27.2353 146.738 27.0041 147.389 26.8364C148.039 26.6687 148.691 26.5847 149.345 26.5847C150.666 26.5847 151.645 26.8762 152.282 27.4599C152.918 28.0437 153.237 28.9795 153.237 30.2678V37.7943H151.993V37.7946H151.993ZM148.202 36.6178C149.246 36.6178 150.067 36.3326 150.664 35.7626C151.26 35.1926 151.558 34.394 151.558 33.3671V32.3711L149.879 32.441C148.545 32.4889 147.584 32.6944 146.993 33.0609C146.404 33.4264 146.109 33.9951 146.109 34.7666C146.109 35.37 146.292 35.8299 146.66 36.1445C147.027 36.4602 147.541 36.6178 148.202 36.6178ZM154.211 26.7661H156.01L158.437 33.0555C158.969 34.4914 159.3 35.5277 159.428 36.1653H159.509C159.597 35.8225 159.78 35.2378 160.06 34.4084C160.339 33.5797 161.255 31.0329 162.804 26.7661H164.605L159.842 39.3246C159.371 40.5657 158.82 41.4463 158.189 41.9671C157.559 42.4865 156.785 42.7459 155.87 42.7459C155.357 42.7459 154.852 42.689 154.352 42.5752V41.2371C154.723 41.3174 155.138 41.3579 155.596 41.3579C156.749 41.3579 157.57 40.7139 158.063 39.4257L158.68 37.8562L154.211 26.7661V26.7661ZM102.77 27.7909C103.302 28.2297 104.415 29.1515 104.415 30.9057C104.415 32.6117 103.441 33.4207 102.468 34.1808C102.166 34.4803 101.819 34.8043 101.819 35.3124C101.819 35.8188 102.166 36.096 102.422 36.3039L103.257 36.9485C104.276 37.8023 105.202 38.5872 105.202 40.1794C105.202 42.3476 103.093 44.5383 99.1077 44.5383C95.7466 44.5383 94.1251 42.9471 94.1251 41.2391C94.1251 40.409 94.5403 39.2332 95.9097 38.4249C97.3456 37.5483 99.2937 37.4341 100.336 37.3632C100.011 36.9485 99.6407 36.51 99.6407 35.7961C99.6407 35.4045 99.7571 35.1736 99.8724 34.8954C99.6165 34.9188 99.3619 34.9419 99.1299 34.9419C96.6741 34.9419 95.2836 33.1195 95.2836 31.3211C95.2836 30.2597 95.7708 29.0826 96.7662 28.2301C98.0878 27.146 99.6636 26.9609 100.916 26.9609H105.689L104.206 27.7913H102.77V27.7909H102.77ZM101.124 38.0336C100.938 38.0095 100.822 38.0095 100.591 38.0095C100.383 38.0095 99.1295 38.0567 98.1573 38.3804C97.6476 38.5635 96.1639 39.1171 96.1639 40.7558C96.1639 42.3928 97.7639 43.571 100.244 43.571C102.467 43.571 103.651 42.5077 103.651 41.0788C103.651 39.8999 102.886 39.2797 101.124 38.0336ZM101.796 33.65C102.329 33.1188 102.374 32.3814 102.374 31.9657C102.374 30.3053 101.378 27.7217 99.4551 27.7217C98.8517 27.7217 98.2034 28.0212 97.8325 28.4831C97.439 28.9674 97.322 29.5897 97.322 30.1901C97.322 31.7355 98.2259 34.2963 100.22 34.2963C100.799 34.2963 101.424 34.0195 101.796 33.65V33.65ZM88.1789 37.6644C84.5004 37.6644 82.5335 34.8084 82.5335 32.2285C82.5335 29.2111 85.0089 26.6329 88.5274 26.6329C91.9271 26.6329 94.0561 29.2804 94.0561 32.0678C94.0564 34.7843 91.9517 37.6644 88.1789 37.6644ZM91.071 35.7991C91.6272 35.0614 91.766 34.1407 91.766 33.2417C91.766 31.2143 90.7942 27.3458 87.9247 27.3458C87.1614 27.3458 86.398 27.6457 85.8428 28.1304C84.9402 28.9353 84.7775 29.9492 84.7775 30.9406C84.7775 33.2189 85.9114 36.9719 88.7119 36.9719C89.6142 36.9719 90.5399 36.5351 91.071 35.7991V35.7991ZM75.6374 37.6644C71.9582 37.6644 69.991 34.8084 69.991 32.2285C69.991 29.2111 72.4673 26.6329 75.9848 26.6329C79.3856 26.6329 81.5142 29.2804 81.5142 32.0678C81.5146 34.7843 79.4095 37.6644 75.6374 37.6644ZM78.5301 35.7991C79.0853 35.0614 79.2245 34.1407 79.2245 33.2417C79.2245 31.2143 78.252 27.3458 75.3825 27.3458C74.6195 27.3458 73.8555 27.6457 73.3006 28.1304C72.398 28.9353 72.2363 29.9492 72.2363 30.9406C72.2363 33.2189 73.3695 36.9719 76.1704 36.9719C77.073 36.9719 77.9981 36.5351 78.5301 35.7991V35.7991ZM68.2235 37.3033L64.8963 38.0674C63.5465 38.2763 62.3372 38.46 61.0584 38.46C54.6368 38.46 52.1951 33.7594 52.1951 30.0777C52.1951 25.5863 55.6608 21.4195 61.5937 21.4195C62.8504 21.4195 64.059 21.6042 65.1522 21.9055C66.8969 22.3918 67.711 22.9933 68.2231 23.3411L66.2916 25.1702L65.4778 25.3546L66.0592 24.4282C65.2686 23.6647 63.8249 22.2526 61.0809 22.2526C57.405 22.2526 54.6361 25.0323 54.6361 29.0839C54.6361 33.4358 57.8005 37.5342 62.8709 37.5342C64.3613 37.5342 65.1274 37.2337 65.8258 36.9552V33.2282L62.3137 33.4133L64.174 32.4166H69.1062L68.5019 32.9953C68.3378 33.1349 68.3153 33.1817 68.2689 33.3652C68.2447 33.574 68.2228 34.2461 68.2228 34.4774V37.3033H68.2235V37.3033Z" fill="black"/>
<path id="Vector_7" d="M110.122 36.6366C109.354 36.567 109.194 36.4287 109.194 35.5247V22.4196C109.198 22.3698 109.201 22.3186 109.206 22.2703C109.3 21.4603 109.532 21.3214 110.254 20.9041H106.926L105.181 21.7378H106.96V21.7482L106.958 21.7398V36.0348C106.958 36.497 106.867 36.5673 106.331 37.2612H110.449L111.31 36.7531C110.915 36.7052 110.519 36.6828 110.122 36.6366V36.6366ZM119.589 36.8495C119.336 36.9877 119.081 37.1494 118.828 37.2635C118.064 37.6083 117.279 37.7006 116.585 37.7006C115.847 37.7006 114.691 37.6531 113.512 36.8033C111.873 35.6526 111.157 33.6752 111.157 31.9511C111.157 28.3874 114.067 26.6399 116.447 26.6399C117.279 26.6399 118.135 26.8465 118.828 27.2843C119.982 28.0417 120.282 29.0304 120.443 29.5596L115.015 31.7449L113.236 31.8828C113.812 34.8031 115.799 36.5034 117.995 36.5034C119.173 36.5034 120.028 36.0904 120.813 35.7001L119.589 36.8495V36.8495ZM117.418 29.996C117.856 29.8357 118.087 29.6971 118.087 29.3755C118.087 28.4564 117.048 27.398 115.799 27.398C114.874 27.398 113.143 28.1113 113.143 30.5942C113.143 30.9851 113.189 31.3988 113.213 31.8142L117.418 29.996V29.996ZM121.819 26.7973V28.3145H121.633V26.7973H121.129V26.6399H122.323V26.7973H121.819V26.7973ZM123.897 28.3145V26.7832H123.888L123.419 28.3145H123.274L122.801 26.7832H122.794V28.3145H122.626V26.6399H122.915L123.343 27.9935H123.349L123.771 26.6399H124.063V28.3145H123.897V28.3145Z" fill="black"/>
<path id="Vector_8" d="M56.8156 16.911H55.6595C55.6595 16.7527 55.5498 16.3045 55.3306 15.5662H53.6616C53.4353 16.2925 53.322 16.7406 53.322 16.911H52.2348C52.2348 16.8176 52.5159 16.0504 53.0782 14.6099C53.6404 13.1693 53.9216 12.3757 53.9216 12.2298H55.2872C55.2872 12.3664 55.5418 13.1482 56.0512 14.5758C56.5607 16.0033 56.8156 16.7815 56.8156 16.911V16.911ZM55.1466 14.8793C54.7347 13.6426 54.5289 12.9739 54.5289 12.8731H54.4711C54.4711 12.9665 54.2579 13.6352 53.8318 14.8793H55.1466V14.8793ZM61.4737 16.911H60.5816C60.5816 16.8126 60.2504 16.2938 59.5882 15.3543C58.8948 14.3642 58.4997 13.6874 58.4035 13.323H58.3457C58.4059 13.8478 58.4362 14.3224 58.4362 14.7468C58.4362 15.3389 58.453 16.0605 58.4866 16.9114H57.5978C57.6338 16.1683 57.652 15.3523 57.652 14.463C57.652 13.5881 57.6338 12.8437 57.5978 12.2302H58.6705C58.6705 12.3574 58.9678 12.8644 59.5627 13.7511C60.1959 14.6929 60.5598 15.3319 60.6536 15.6676H60.7077C60.6499 15.1331 60.621 14.6537 60.621 14.2294C60.621 13.5801 60.6041 12.9133 60.5705 12.2302H61.4738C61.4398 12.8246 61.4233 13.569 61.4233 14.463C61.4229 15.3637 61.4398 16.1797 61.4737 16.911V16.911ZM66.7093 14.4084C66.7093 15.0892 66.49 15.6837 66.0518 16.1917C65.6133 16.7002 64.9993 16.9539 64.2094 16.9539C63.8529 16.9539 63.3616 16.9395 62.7354 16.9107C62.7667 16.1867 62.7825 15.3704 62.7825 14.4623C62.7825 13.5901 62.7667 12.8457 62.7354 12.2295H63.3677C63.4712 12.2295 63.6252 12.2258 63.8301 12.2188C64.0345 12.2117 64.1683 12.208 64.2309 12.208C65.1002 12.208 65.7304 12.4239 66.1221 12.8554C66.5135 13.2868 66.7093 13.8043 66.7093 14.4084V14.4084ZM65.7233 14.563C65.7233 14.1028 65.5884 13.7152 65.3187 13.3996C65.049 13.0846 64.6371 12.927 64.0832 12.927C63.9797 12.927 63.8377 12.9377 63.6568 12.9595C63.6807 13.4391 63.6928 13.9398 63.6928 14.4623C63.6928 15.0353 63.7049 15.6033 63.7288 16.1666C63.8833 16.1976 64.0406 16.2133 64.1982 16.2135C64.7161 16.2135 65.0994 16.0532 65.3486 15.7332C65.5978 15.4132 65.7233 15.0232 65.7233 14.563V14.563ZM71.5372 16.911H70.4678C70.1884 16.0625 69.9742 15.5387 69.8249 15.3399C69.6756 15.1407 69.4348 15.0413 69.1026 15.0413C68.9627 15.0413 68.8292 15.0427 68.7017 15.045C68.7017 15.6612 68.7125 16.2831 68.7344 16.911H67.7302C67.7615 16.187 67.7773 15.3707 67.7773 14.4626C67.7773 13.5904 67.7615 12.846 67.7302 12.2298H68.355C68.4273 12.2298 68.5783 12.2261 68.8083 12.2191C69.0383 12.2121 69.2509 12.2084 69.4459 12.2084C70.5513 12.2084 71.1041 12.5846 71.1041 13.3373C71.1041 13.9341 70.7887 14.3498 70.1578 14.5851V14.639C70.4009 14.706 70.6142 14.8951 70.7971 15.205C70.9797 15.5153 71.2265 16.0839 71.5372 16.911V16.911ZM70.1827 13.6031C70.1827 13.1261 69.8743 12.8875 69.2579 12.8875C69.0316 12.8875 68.8315 12.9042 68.6583 12.9377C68.6849 13.3092 68.698 13.7936 68.698 14.3903C68.8305 14.3954 68.9425 14.3974 69.0339 14.3974C69.7997 14.3977 70.1827 14.1329 70.1827 13.6031V13.6031ZM76.7152 14.484C76.7152 15.2197 76.4889 15.8299 76.0359 16.3142C75.583 16.7982 75.0231 17.0405 74.3562 17.0405C73.7204 17.0405 73.188 16.8183 72.7596 16.3734C72.3308 15.9289 72.1166 15.3637 72.1166 14.6785C72.1166 13.9428 72.3429 13.3326 72.7959 12.8483C73.2485 12.3643 73.8084 12.122 74.4756 12.122C75.1115 12.122 75.6435 12.3436 76.0723 12.7871C76.501 13.2306 76.7152 13.7959 76.7152 14.484V14.484ZM75.7185 14.5881C75.7185 14.0871 75.5897 13.6808 75.3321 13.3691C75.0742 13.0575 74.7564 12.9019 74.3784 12.9019C74.0267 12.9019 73.7281 13.0589 73.4826 13.3728C73.2371 13.6868 73.1137 14.0834 73.1137 14.563C73.1137 15.0614 73.2432 15.4671 73.5021 15.7801C73.761 16.093 74.0781 16.2493 74.4541 16.2493C74.8055 16.2493 75.1045 16.0917 75.3499 15.7763C75.5954 15.4614 75.7185 15.0651 75.7185 14.5881V14.5881ZM78.7578 16.911H77.7355C77.7668 16.168 77.7826 15.3519 77.7826 14.4626C77.7826 13.5877 77.7668 12.8433 77.7355 12.2298H78.7578C78.7265 12.8339 78.7107 13.578 78.7107 14.4626C78.7107 15.366 78.7265 16.1823 78.7578 16.911ZM83.9937 14.4084C83.9937 15.0892 83.7744 15.6837 83.3362 16.1917C82.8977 16.7002 82.2837 16.9539 81.4938 16.9539C81.1373 16.9539 80.646 16.9395 80.0198 16.9107C80.0511 16.1867 80.0669 15.3704 80.0669 14.4623C80.0669 13.5901 80.0511 12.8457 80.0198 12.2295H80.6521C80.7556 12.2295 80.9096 12.2258 81.1144 12.2188C81.3189 12.2117 81.4527 12.208 81.5153 12.208C82.3846 12.208 83.0148 12.4239 83.4065 12.8554C83.7979 13.2868 83.9937 13.8043 83.9937 14.4084V14.4084ZM83.0077 14.563C83.0077 14.1028 82.8728 13.7152 82.6031 13.3996C82.3334 13.0846 81.9215 12.927 81.3676 12.927C81.264 12.927 81.1221 12.9377 80.9412 12.9595C80.9651 13.4391 80.9772 13.9398 80.9772 14.4623C80.9772 15.0353 80.9893 15.6033 81.0132 16.1666C81.1677 16.1976 81.325 16.2133 81.4826 16.2135C82.0004 16.2135 82.3838 16.0532 82.633 15.7332C82.8823 15.4132 83.0077 15.0232 83.0077 14.563ZM90.9398 16.911H89.7837C89.7837 16.7527 89.6741 16.3045 89.4545 15.5662H87.7855C87.5592 16.2925 87.4459 16.7406 87.4459 16.911H86.359C86.359 16.8176 86.6401 16.0504 87.2024 14.6099C87.7647 13.1693 88.0458 12.3757 88.0458 12.2298H89.4114C89.4114 12.3664 89.6663 13.1482 90.1755 14.5758C90.6846 16.0033 90.9398 16.7815 90.9398 16.911ZM89.2709 14.8793C88.8589 13.6426 88.6528 12.9739 88.6528 12.8731H88.5949C88.5949 12.9665 88.3821 13.6352 87.956 14.8793H89.2709V14.8793ZM95.1534 13.4555C95.1534 14.0285 94.9395 14.4516 94.5121 14.7247C94.0847 14.9978 93.5604 15.1347 92.9389 15.1347C92.8257 15.1347 92.7453 15.1323 92.6969 15.1277C92.6969 15.5785 92.7099 16.1726 92.7365 16.911H91.7213C91.7525 16.2185 91.7684 15.4021 91.7684 14.4626C91.7684 13.5998 91.7526 12.8554 91.7213 12.2298H92.3498C92.4389 12.2298 92.6097 12.2261 92.8626 12.2191C93.1155 12.2121 93.3344 12.2084 93.52 12.2084C93.9774 12.2084 94.3641 12.3114 94.6795 12.5176C94.995 12.7238 95.1534 13.0361 95.1534 13.4555V13.4555ZM94.2216 13.6533C94.2216 13.1405 93.8796 12.8838 93.1956 12.8838C93.0244 12.8838 92.8438 12.9019 92.6538 12.9377C92.6804 13.3909 92.6935 13.9037 92.6935 14.4767C92.7537 14.4817 92.8237 14.4837 92.903 14.4837C93.7821 14.484 94.2216 14.2072 94.2216 13.6533V13.6533ZM99.486 13.4555C99.486 14.0285 99.2721 14.4516 98.8451 14.7247C98.4177 14.9978 97.8931 15.1347 97.2717 15.1347C97.1583 15.1347 97.078 15.1323 97.0295 15.1277C97.0295 15.5785 97.0426 16.1726 97.0692 16.911H96.054C96.0852 16.2185 96.1011 15.4021 96.1011 14.4626C96.1011 13.5998 96.0853 12.8554 96.054 12.2298H96.6825C96.7716 12.2298 96.9424 12.2261 97.1953 12.2191C97.4482 12.2121 97.6671 12.2084 97.8527 12.2084C98.31 12.2084 98.6968 12.3114 99.0122 12.5176C99.3276 12.7238 99.486 13.0361 99.486 13.4555V13.4555ZM98.5542 13.6533C98.5542 13.1405 98.2122 12.8838 97.5282 12.8838C97.3571 12.8838 97.1765 12.9019 96.9865 12.9377C97.013 13.3909 97.0262 13.9037 97.0262 14.4767C97.0863 14.4817 97.1563 14.4837 97.2357 14.4837C98.1147 14.484 98.5542 14.2072 98.5542 13.6533V13.6533ZM106.57 14.484C106.57 15.2197 106.343 15.8299 105.89 16.3142C105.438 16.7985 104.878 17.0405 104.211 17.0405C103.575 17.0405 103.043 16.8183 102.614 16.3734C102.186 15.9289 101.971 15.3637 101.971 14.6785C101.971 13.9428 102.197 13.3326 102.65 12.8483C103.103 12.364 103.663 12.122 104.33 12.122C104.966 12.122 105.498 12.3436 105.927 12.7871C106.355 13.2306 106.57 13.7959 106.57 14.484V14.484ZM105.573 14.5881C105.573 14.0871 105.444 13.6808 105.186 13.3691C104.929 13.0575 104.611 12.9019 104.233 12.9019C103.881 12.9019 103.582 13.0589 103.337 13.3728C103.091 13.6868 102.968 14.0834 102.968 14.563C102.968 15.0614 103.098 15.4671 103.357 15.7801C103.615 16.093 103.933 16.2493 104.308 16.2493C104.66 16.2493 104.959 16.0917 105.204 15.7764C105.45 15.4614 105.573 15.0651 105.573 14.5881V14.5881ZM111.466 16.911H110.574C110.574 16.8126 110.243 16.2938 109.58 15.3543C108.887 14.3642 108.492 13.6874 108.396 13.323H108.338C108.398 13.8478 108.428 14.3224 108.428 14.7468C108.428 15.3389 108.445 16.0605 108.479 16.9114H107.59C107.626 16.1683 107.644 15.3523 107.644 14.463C107.644 13.5881 107.626 12.8437 107.59 12.2302H108.663C108.663 12.3574 108.96 12.8644 109.555 13.7511C110.188 14.6929 110.552 15.3319 110.646 15.6676H110.7C110.642 15.1331 110.613 14.6537 110.613 14.2294C110.613 13.5801 110.596 12.9133 110.563 12.2302H111.466C111.432 12.8246 111.416 13.569 111.416 14.463C111.416 15.3637 111.432 16.1797 111.466 16.911V16.911Z" fill="black"/>
</g>
<defs>
<linearGradient id="paint0_linear_224_368" x1="22.5077" y1="11.6214" x2="22.5077" y2="49.5446" gradientUnits="userSpaceOnUse">
<stop stop-color="#257CB0"/>
<stop offset="0.286" stop-color="#4A93B5"/>
<stop offset="0.767" stop-color="#78BCBB"/>
<stop offset="1" stop-color="#89CFBD"/>
</linearGradient>
<linearGradient id="paint1_linear_224_368" x1="12.9016" y1="21.033" x2="37.2747" y2="21.033" gradientUnits="userSpaceOnUse">
<stop stop-color="#52C1AD"/>
<stop offset="1" stop-color="#DEE89A"/>
</linearGradient>
<linearGradient id="paint2_linear_224_368" x1="25.0876" y1="30.5832" x2="25.0876" y2="49.6825" gradientUnits="userSpaceOnUse">
<stop stop-color="#EC413D"/>
<stop offset="0.167" stop-color="#DA4452"/>
<stop offset="0.575" stop-color="#B0487A"/>
<stop offset="0.862" stop-color="#954A92"/>
<stop offset="1" stop-color="#8A4A9D"/>
</linearGradient>
<linearGradient id="paint3_linear_224_368" x1="39.1259" y1="25.4898" x2="39.1259" y2="35.6753" gradientUnits="userSpaceOnUse">
<stop stop-color="#F58879"/>
<stop offset="0.119" stop-color="#F69079"/>
<stop offset="0.713" stop-color="#FCB877"/>
<stop offset="1" stop-color="#FEC874"/>
</linearGradient>
<clipPath id="clip0_224_368">
<rect width="172" height="56" fill="white" transform="translate(-0.00012207 0.840088)"/>
</clipPath>
</defs>
</svg>
